<?xml version="1.0" standalone="no"?>
<!DOCTYPE svg PUBLIC "-//W3C//DTD SVG 20010904//EN"
 "http://www.w3.org/TR/2001/REC-SVG-20010904/DTD/svg10.dtd">
<svg version="1.0" xmlns="http://www.w3.org/2000/svg"
 width="512.000000pt" height="512.000000pt" viewBox="0 0 512.000000 512.000000"
 preserveAspectRatio="xMidYMid meet">

<g transform="translate(0.000000,512.000000) scale(0.100000,-0.100000)"
fill="#000000" stroke="none">
<path d="M0 2560 l0 -2560 2560 0 2560 0 0 2560 0 2560 -2560 0 -2560 0 0
-2560z m3040 1985 l0 -256 25 -24 24 -25 588 0 c656 0 671 -2 803 -66 102 -51
203 -152 254 -254 55 -113 66 -182 66 -427 l0 -212 34 -3 34 -3 -74 -63 -74
-63 0 -890 0 -889 -346 0 -345 0 3 33 3 32 283 5 c283 5 284 5 303 29 18 23
19 55 19 1093 l0 1069 -25 24 -24 25 -2031 0 -2031 0 -24 -25 -25 -24 0 -1069
c0 -1038 1 -1070 19 -1093 19 -24 20 -24 303 -29 l283 -5 3 -32 3 -33 -345 0
-346 0 0 889 0 890 -74 63 -74 63 34 3 34 3 0 212 c0 245 11 314 66 427 51
102 152 203 254 254 132 64 147 66 803 66 l588 0 24 25 25 24 0 256 0 255 480
0 480 0 0 -255z m-560 -1282 l0 -258 -35 -22 c-19 -13 -37 -23 -40 -23 -3 0
-5 79 -5 175 l0 176 -26 26 c-25 25 -28 26 -117 20 -222 -15 -417 -112 -582
-289 -180 -194 -307 -439 -366 -709 -18 -82 -23 -135 -24 -249 0 -132 2 -149
23 -187 51 -96 137 -153 243 -161 87 -6 148 15 224 76 90 73 96 75 250 82 117
5 148 10 187 29 63 30 121 88 155 153 l28 53 3 300 3 300 80 53 79 52 79 -52
80 -53 3 -300 3 -300 27 -50 c34 -64 90 -120 153 -153 44 -23 66 -26 190 -32
152 -7 159 -9 245 -75 90 -70 115 -79 205 -80 93 0 148 22 209 83 73 72 81 99
81 262 -1 216 -48 406 -152 615 -99 197 -278 410 -423 503 -120 78 -296 132
-426 132 -56 0 -68 -4 -89 -25 -25 -24 -25 -27 -25 -200 0 -96 -2 -175 -5
-175 -3 0 -21 10 -40 23 l-35 22 0 258 0 257 920 0 920 0 0 -960 0 -960 -206
0 c-191 0 -205 1 -200 18 12 40 236 1085 234 1087 -9 8 -154 33 -159 27 -3 -4
-58 -252 -123 -552 -65 -300 -120 -553 -122 -562 -5 -17 -78 -18 -1344 -18
l-1338 0 -20 88 c-11 48 -66 301 -122 562 -57 261 -106 478 -109 482 -5 5
-150 -19 -158 -26 -2 -2 206 -971 232 -1083 l5 -23 -205 0 -205 0 0 960 0 960
920 0 920 0 0 -257z m1387 -1845 c-31 -128 -32 -519 -2 -713 13 -83 54 -269
81 -362 l6 -23 -1391 0 c-765 0 -1391 3 -1391 6 0 4 9 37 20 73 30 101 68 304
79 425 18 182 11 441 -15 584 l-6 32 1312 0 1312 0 -5 -22z"/>
</g>
</svg>
